<?xml version="1.0" encoding="iso-8859-1"?>
<!-- Generator: Adobe Illustrator 16.0.0, SVG Export Plug-In . SVG Version: 6.00 Build 0)  -->
<!DOCTYPE svg PUBLIC "-//W3C//DTD SVG 1.1//EN" "http://www.w3.org/Graphics/SVG/1.1/DTD/svg11.dtd">
<svg version="1.1" id="Capa_1" xmlns="http://www.w3.org/2000/svg" xmlns:xlink="http://www.w3.org/1999/xlink" x="0px" y="0px"
	 width="594.672px" height="594.672px" viewBox="0 0 594.672 594.672" style="enable-background:new 0 0 594.672 594.672;"
	 xml:space="preserve">
<g>
	<g>
		<path d="M488.094,434.415c-45.456,0-82.363-36.889-82.363-82.363c0-24.405,10.658-46.247,27.53-61.33l20.743,48.101
			c3.935,9.077,8.104,9.841,9.113,9.895h0.199h15.573c8.359,0,5.488-8.504,4.398-11.157l-26.613-61.643
			c9.704-3.998,20.308-6.242,31.419-6.242c45.476,0,82.382,36.884,82.382,82.369C570.476,397.545,533.569,434.415,488.094,434.415
			L488.094,434.415z M401.924,225.508L286.015,327.329c0,0.018,0,0.018,0,0.018c-13.628,11.939-20.261-0.972-20.361-1.181
			l-49.246-97.773l0,0c-4.379-8.708,3.816-9.872,7.478-9.972h166.653c0,0,11.466-0.104,12.602,2.485v0.009
			C403.877,222.605,404.004,223.686,401.924,225.508L401.924,225.508z M237.896,346.491l-24.995-2.081
			c-1.327-32.745-17.386-61.606-41.772-80.232l10.085-17.118c8.727-14.805,16.327,0.009,16.327,0.009l0,0
			c16.478,32.359,33.931,66.64,44.107,86.739C241.658,333.816,248.49,347.354,237.896,346.491L237.896,346.491z M140.873,338.468
			c-0.027-0.026-0.027-0.026-0.059-0.026c-12.334-1.027-4.493-15.064-4.043-15.828l20.67-35.158
			c16.741,13.184,28.23,32.686,30.851,54.928L140.873,338.468L140.873,338.468z M106.56,434.533
			c-45.479,0-82.377-36.897-82.377-82.382c0-45.493,36.889-82.363,82.377-82.363c9.981,0,19.498,1.872,28.357,5.115l-38.833,65.981
			c-1.108,1.872-1.554,3.889-1.704,5.888c-0.027,0.2-0.132,0.327-0.15,0.509c-0.063,0.846,0.186,1.581,0.282,2.399
			c0.082,0.509,0.036,0.963,0.172,1.472c1.222,5.179,5.501,9.285,11.103,9.758l81.632,6.76
			C180.173,405.704,146.742,434.533,106.56,434.533L106.56,434.533z M488.094,242.153c-14.982,0-29.266,3.125-42.23,8.745
			L401.27,147.56c-1.127-2.63-3.126-4.493-5.388-5.915c-1.972-1.367-4.262-2.335-6.869-2.335h-82.728
			c-6.923,0-12.52,5.602-12.52,12.511c0,6.905,5.597,12.507,12.52,12.507h63.456c3.062,0.159,9.495,1.29,12.257,7.664l5.016,11.603
			l0,0l0.954,2.176c0.918,2.708,1.281,6.969-5.624,6.969h-174c-7.964,0-11.726-4.193-13.333-6.81l-1.022-2.053v-0.032l-5.129-10.149
			c0,0,0,0,0-0.009l-0.054-0.091l-0.932-1.872l-0.1-0.009l-2.095-3.78c-0.454-1.181-0.291-3.125,6.047-3.125h24.173
			c0,0,14.201,1.181,14.601-11.843c0.2-6.71-4.525-13.611-10.844-13.611c-6.306,0-85.058,0-85.058,0s-13.611-1.572-14.392,12.729
			c0,6.401,5.315,12.725,12.82,12.725c2.744,0,6.505-0.018,10.135-0.063c4.761,0.132,12.911,1.136,15.591,6.306l0,0l1.09,2.04
			c2.667,5.247,6.978,13.688,12.207,23.928c0.381,0.727,0.772,1.536,1.172,2.29c0.995,2.662,1.758,7.5-1.935,13.788l-22.342,37.952
			c-12.988-5.638-27.294-8.809-42.377-8.809C47.729,242.24,0,289.94,0,348.79c0,58.858,47.729,106.577,106.568,106.577
			c51.749,0,94.843-36.889,104.52-85.771l53.63,4.442c2.171,0.191,4.197-0.363,6.069-1.181c2.362-0.399,4.707-1.182,6.624-2.898
			l129.937-114.11c1.781-1.526,8.123-6.31,10.703-0.373l4.144,9.622c-24.714,19.517-40.659,49.673-40.659,83.617
			c0,58.858,47.71,106.56,106.55,106.56c58.858,0,106.587-47.701,106.587-106.56C594.681,289.873,546.952,242.153,488.094,242.153
			L488.094,242.153z"/>
	</g>
</g>
</svg>
