<?xml version="1.0" encoding="iso-8859-1"?>
<!-- Generator: Adobe Illustrator 19.1.0, SVG Export Plug-In . SVG Version: 6.00 Build 0)  -->
<svg version="1.1" id="Capa_1" xmlns="http://www.w3.org/2000/svg" xmlns:xlink="http://www.w3.org/1999/xlink" x="0px" y="0px" width="30" height="30px"
	 viewBox="0 0 63 63" style="enable-background:new 0 0 63 63;" xml:space="preserve">
<g>
	<g id="group-39svg">
		<path id="path-1_31_" d="M58.004,44.772c-0.828,0-1.607-0.673-1.607-1.501c0-0.83,0.832-1.501,1.661-1.501
			c0.44,0,1.942,0,1.942-2.568v-4.098c0-3.587-3.343-6.505-6.927-6.505h-44C5.489,28.599,3,31.517,3,35.104v3.751
			c0,1.518,0.808,2.753,2.324,2.753h2.249c0.828,0,1.5,0.672,1.5,1.501c0,0.829-0.672,1.501-1.5,1.501H5.324
			C2.153,44.61,0,42.029,0,38.855v-3.751c0-5.242,3.835-9.507,9.073-9.507h44c5.239,0,9.927,4.265,9.927,9.507v4.098
			C63,42.586,60.91,44.772,58.004,44.772z"/>
		<path id="path-2_31_" d="M44.573,44.61h-24c-0.828,0-1.5-0.672-1.5-1.501c0-0.829,0.672-1.501,1.5-1.501h24
			c0.828,0,1.5,0.672,1.5,1.501C46.073,43.938,45.401,44.61,44.573,44.61z"/>
		<path id="path-3_31_" d="M44.533,27.598c-0.819,0-1.488-0.906-1.5-1.728c-0.073-5.271-6.653-11.29-15.349-11.29
			c-8.464,0-15.35,4.938-15.35,11.083c0,0.829-0.672,1.47-1.5,1.47s-1.5-0.687-1.5-1.516c0-7.801,8.231-14.155,18.35-14.155
			c9.669,0,18.245,6.845,18.349,14.371c0.012,0.828-0.65,0.765-1.479,1.765C44.547,27.598,44.54,27.598,44.533,27.598z"/>
		<path id="path-4_29_" d="M51.514,51.538c-4.06,0-7.363-3.305-7.363-7.367s3.303-7.367,7.363-7.367
			c4.059,0,7.362,3.305,7.362,7.367S55.573,51.538,51.514,51.538z M51.514,39.806c-2.406,0-4.363,1.958-4.363,4.365
			s1.957,4.365,4.363,4.365c2.405,0,4.362-1.958,4.362-4.365S53.919,39.806,51.514,39.806z"/>
		<path id="path-5_27_" d="M14.376,50.538c-4.06,0-7.362-3.306-7.362-7.367c0-4.063,3.302-7.368,7.362-7.368
			c4.059,0,7.362,3.305,7.362,7.368C21.738,47.232,18.435,50.538,14.376,50.538z M14.376,38.805c-2.405,0-4.362,1.959-4.362,4.366
			s1.957,4.364,4.362,4.364s4.362-1.957,4.362-4.364S16.781,38.805,14.376,38.805z"/>
		<path id="path-6_22_" d="M27.5,28.099c-0.828,0-1.5-0.673-1.5-1.501V13.589c0-0.83,0.672-1.502,1.5-1.502s1.5,0.672,1.5,1.502
			v13.009C29,27.426,28.328,28.099,27.5,28.099z"/>
		<path id="path-7_18_" d="M60.573,34.603h-4c-0.828,0-1.5-0.672-1.5-1.501c0-0.829,0.672-1.501,1.5-1.501h4
			c0.828,0,1.5,0.672,1.5,1.501C62.073,33.931,61.401,34.603,60.573,34.603z"/>
	</g>
</g>
</svg>
