<?xml version='1.0' encoding='iso-8859-1'?>
<svg version="1.1" xmlns="http://www.w3.org/2000/svg" width="30" height="30px" viewBox="0 0 304.328 304.328" xmlns:xlink="http://www.w3.org/1999/xlink" enable-background="new 0 0 304.328 304.328">
  <g>
    <g fill="#010202">
      <path d="m53.187,166.201c-13.039,0-23.645,10.606-23.645,23.645 0,13.045 10.606,23.657 23.645,23.657 13.045,0 23.651-10.612 23.651-23.657 0.006-13.039-10.605-23.645-23.651-23.645zm0,30.014c-3.51,0-6.362-2.852-6.362-6.368 0-3.504 2.852-6.362 6.362-6.362 3.516,0 6.368,2.858 6.368,6.362 0.001,3.516-2.852,6.368-6.368,6.368z"/>
      <path d="m252.083,166.201c-13.045,0-23.651,10.606-23.651,23.645 0,13.045 10.606,23.657 23.651,23.657 13.039,0 23.645-10.612 23.645-23.657 0.006-13.039-10.606-23.645-23.645-23.645zm0,30.014c-3.516,0-6.368-2.852-6.368-6.368 0-3.504 2.852-6.362 6.368-6.362 3.51,0 6.362,2.858 6.362,6.362 0.001,3.516-2.852,6.368-6.362,6.368z"/>
      <rect width="101.893" x="101.689" y="187.565" height="17.295"/>
      <polygon points="298.803,161.929 285.432,143.406 261.758,130.582 233.036,126.414 206.713,126.414     190.863,96.808 155.953,90.824 106.148,90.824 64.201,102.862 23.011,140.46 0,185.952 15.426,193.759 37.011,151.09     72.863,118.369 108.581,108.118 154.486,108.118 179.61,112.42 196.358,143.703 231.785,143.703 256.228,147.248 273.726,156.73     282.644,169.083 287.411,191.64 304.328,188.065   "/>
    </g>
  </g>
</svg>
