<svg version="1.1" xmlns="http://www.w3.org/2000/svg" width="30" height="30px" viewBox="0 0 305.445 305.445" xmlns:xlink="http://www.w3.org/1999/xlink" enable-background="new 0 0 305.445 305.445">
  <g>
    <g>
      <path d="m251.577,167.677c-12.713,0-23.057,10.344-23.057,23.057 0,12.713 10.344,23.046 23.057,23.046s23.052-10.332 23.052-23.046c-0.001-12.713-10.339-23.057-23.052-23.057zm0,31.702c-4.767,0-8.644-3.877-8.644-8.639 0-4.767 3.877-8.65 8.644-8.65 4.762,0 8.639,3.883 8.639,8.65 0.005,4.762-3.872,8.639-8.639,8.639z"/>
      <path d="m50.289,167.677c-12.713,0-23.052,10.344-23.052,23.057 0,12.713 10.338,23.046 23.052,23.046s23.052-10.332 23.052-23.046c-0.001-12.713-10.339-23.057-23.052-23.057zm0,31.702c-4.762,0-8.644-3.877-8.644-8.639 0-4.767 3.883-8.65 8.644-8.65 4.767,0 8.644,3.883 8.644,8.65 0.006,4.762-3.871,8.639-8.644,8.639z"/>
      <rect width="113.448" x="93.458" y="191.13" height="17.289"/>
      <polygon points="299.001,155.977 289.606,134.31 215.463,125.212 181.456,91.665 54.614,91.665 54.596,91.688 31.632,91.688     31.632,99.069 48.199,99.069 0,154.719 0,184.261 17.289,184.261 17.289,161.163 62.507,108.954 174.36,108.954 207.511,141.662     277.679,150.26 284.617,166.263 288.157,169.482 288.157,191.974 305.445,191.974 305.445,161.833   "/>
    </g>
  </g>
</svg>
