<svg xmlns="http://www.w3.org/2000/svg" viewBox="0 0 1920 1920">
    <style>
        .st0{fill:#fff}.st1{fill:#00c853}.st2{fill:none;stroke:#231f20;stroke-width:50;stroke-linecap:round;stroke-linejoin:round;stroke-miterlimit:10}
    </style>
    <path class="st0" d="M1704.2 1124.7l-1.5 27.3h-195.5c-22.3-29.4-57.5-48.3-97.2-48.3s-75 19-97.2 48.3H531.2c-22.3-25.1-54.9-41-91.2-41s-68.9 15.9-91.2 41H208.5l2.2-19.9s.6-8.7 1.9-21.1c64.2-1 111.4-69 111.4-69l-95.3-10.4c25.5-24 178.5-81 178.5-81h19.5s73.5-78 175.5-177 217.5-112.5 217.5-112.5l795 14.3c26.7.5 50.1 18.1 57.8 43.6 19.4 64.4 27.2 169 30.2 255.9H1651l-12.1 147.4 65.3 2.4zM868 954l731.1-16s-12-96-15-114-6-46-51-49-666.1-7.1-666.1-7.1l1 186.1zm-78 0c2-4 10-184 10-184-15-7-113.1 4.8-130.1 18.8S475 993 475 993c39-3 313-35 315-39z" id="Layer_2"/>
    <g id="Layer_3">
        <path class="st0" d="M1599.1 938L868 954l-1-186.1s621.1 4.1 666.1 7.1 48 31 51 49 15 114 15 114z"/>
        <path class="st0" d="M800 770s-8 180-10 184-276 36-315 39c0 0 177.9-190.2 194.9-204.2S785 763 800 770z"/>
    </g>
    <g id="Layer_4">
        <path class="st0" d="M1702.7 1152l-3.2 60.4-169.4 34.2c1.2-6.8 1.8-13.8 1.8-20.9 0-27.7-9.2-53.2-24.8-73.7h195.6z"/>
        <path class="st0" d="M531.2 1151.9h781.4c-15.5 20.5-24.8 46-24.8 73.7 0 6.1.4 12.1 1.3 17.9l-728 3.4c.5-4.6.8-9.3.8-14 .1-31-11.5-59.4-30.7-81z"/>
        <path class="st0" d="M208.5 1151.9h140.3c-19.1 21.5-30.8 49.9-30.8 81 0 5.9.4 11.7 1.2 17.4l-117.6-37.2 6.9-61.2z"/>
    </g>
    <path class="st0" d="M1531.9 1225.6c0 7.1-.6 14.1-1.8 20.9-9.9 57.4-60 101.1-120.2 101.1-61.3 0-112-45.2-120.7-104.1-.9-5.8-1.3-11.8-1.3-17.9 0-27.7 9.2-53.2 24.8-73.7 22.3-29.4 57.5-48.3 97.2-48.3s75 19 97.2 48.3c15.6 20.5 24.8 46 24.8 73.7zm-79.9 0c0-23.2-18.8-42.1-42.1-42.1s-42.1 18.8-42.1 42.1 18.8 42.1 42.1 42.1 42.1-18.8 42.1-42.1zm-890.8 21.3c-6.9 60.8-58.6 108-121.2 108-61.5 0-112.3-45.5-120.8-104.6-.8-5.7-1.2-11.5-1.2-17.4 0-31.1 11.6-59.5 30.8-81 22.4-25.1 54.9-41 91.2-41s68.9 15.9 91.2 41c19.1 21.5 30.8 49.9 30.8 81 0 4.8-.3 9.5-.8 14zm-78-14c0-23.9-19.4-43.2-43.2-43.2s-43.2 19.3-43.2 43.2 19.4 43.2 43.2 43.2 43.2-19.3 43.2-43.2z" id="Layer_5"/>
    <g id="Layer_6">
        <path class="st0" d="M1409.9 1183.5c23.2 0 42.1 18.8 42.1 42.1s-18.8 42.1-42.1 42.1-42.1-18.8-42.1-42.1c0-23.2 18.9-42.1 42.1-42.1z"/>
        <circle class="st0" cx="440" cy="1232.9" r="43.2"/>
    </g>
    <path class="st0" d="M1702.8 974.9c2.9 83 1.4 149.8 1.4 149.8l-65.2-2.4 12.1-147.4h51.7zm-1490.2 136c64.2-1 111.4-69 111.4-69l-95.3-10.4c-8 11.2-13.4 53.4-16.1 79.4z" id="Layer_8"/>
    <g id="STROKES">
        <g id="XMLID_1_">
            <path class="st2" d="M1530.1 1246.6l169.4-34.2 3.2-60.4 1.5-27.3s1.5-66.8-1.4-149.8c-3-86.9-10.9-191.5-30.2-255.9-7.7-25.6-31.1-43.1-57.8-43.6l-795-14.3s-115.5 13.5-217.5 112.5-175.5 177-175.5 177h-19.5s-153 57-178.5 81c-8 11.2-13.4 53.4-16.1 79.4-1.3 12.4-1.9 21.1-1.9 21.1l-2.2 19.9-6.9 61.2 117.6 37.2"/>
            <path class="st2" d="M561.2 1246.9l728-3.4"/>
            <path class="st2" d="M212.6 1110.9c64.2-1 111.4-69 111.4-69l-95.3-10.4"/>
            <path class="st2" d="M800 770s-8 180-10 184-276 36-315 39c0 0 177.9-190.2 194.9-204.2S785 763 800 770z"/>
            <path class="st2" d="M732 1023l43-5"/>
            <path class="st2" d="M1702.8 974.9H1651l-12.1 147.4 65.3 2.4"/>
            <path class="st2" d="M208.5 1151.9h140.3"/>
            <path class="st2" d="M1507.2 1151.9h195.4"/>
            <path class="st2" d="M531.2 1151.9h781.5"/>
            <path class="st2" d="M867 767.9s621.1 4.1 666.1 7.1 48 31 51 49 15 114 15 114L868 954l-1-186.1z"/>
            <path class="st2" d="M561.2 1246.9c.5-4.6.8-9.3.8-14 0-31.1-11.6-59.5-30.8-81-22.3-25.1-54.9-41-91.2-41s-68.9 15.9-91.2 41c-19.1 21.5-30.8 49.9-30.8 81 0 5.9.4 11.7 1.2 17.4 8.4 59.1 59.3 104.6 120.8 104.6 62.6 0 114.3-47.2 121.2-108z"/>
            <circle class="st2" cx="440" cy="1232.9" r="43.2"/>
            <path class="st2" d="M1530.1 1246.6c1.2-6.8 1.8-13.8 1.8-20.9 0-27.7-9.2-53.2-24.8-73.7-22.3-29.4-57.5-48.3-97.2-48.3s-75 19-97.2 48.3c-15.5 20.5-24.8 46-24.8 73.7 0 6.1.4 12.1 1.3 17.9 8.7 58.9 59.4 104.1 120.7 104.1 60.2-.1 110.3-43.7 120.2-101.1z"/>
            <path class="st2" d="M1452 1225.6c0-23.2-18.8-42.1-42.1-42.1s-42.1 18.8-42.1 42.1 18.8 42.1 42.1 42.1 42.1-18.8 42.1-42.1z"/>
        </g>
    </g>
</svg>
