<?xml version="1.0" standalone="no"?>
<!DOCTYPE svg PUBLIC "-//W3C//DTD SVG 20010904//EN"
 "http://www.w3.org/TR/2001/REC-SVG-20010904/DTD/svg10.dtd">
<svg version="1.0" xmlns="http://www.w3.org/2000/svg"
 width="757.000000pt" height="1280.000000pt" viewBox="0 0 757.000000 1280.000000"
 preserveAspectRatio="xMidYMid meet">
<metadata>
Created by potrace 1.15, written by Peter Selinger 2001-2017
</metadata>
<g transform="translate(0.000000,1280.000000) scale(0.100000,-0.100000)"
fill="#000000" stroke="none">
<path d="M4084 12786 c-416 -68 -756 -378 -860 -785 -125 -485 105 -988 553
-1210 165 -82 277 -106 478 -105 139 1 173 4 257 27 363 97 649 374 752 728
75 260 51 520 -69 764 -139 281 -387 483 -690 561 -123 31 -301 40 -421 20z"/>
<path d="M3765 10455 c-149 -24 -309 -86 -443 -172 -74 -46 -2133 -1715 -2202
-1783 -60 -59 -99 -121 -124 -197 -22 -70 -474 -2108 -482 -2173 -8 -72 15
-180 56 -260 87 -172 293 -278 483 -249 91 14 195 68 266 140 91 91 122 163
177 409 55 250 351 1598 356 1623 2 13 738 620 745 614 1 -1 -254 -1134 -567
-2518 l-568 -2516 -685 -1150 c-377 -633 -697 -1177 -710 -1209 -91 -218 -88
-412 9 -613 38 -78 60 -108 132 -181 99 -99 186 -152 304 -187 250 -72 497
-13 689 164 33 31 80 84 103 117 81 114 1517 2546 1576 2669 l59 122 178 823
c97 452 180 821 184 820 12 -6 1529 -1669 1529 -1677 0 -16 459 -2425 476
-2496 58 -253 250 -466 488 -541 330 -104 696 50 852 358 71 140 93 324 60
499 -8 41 -45 233 -81 425 -36 192 -115 608 -175 924 -60 316 -139 733 -175
925 -65 345 -95 462 -134 526 -11 18 -442 532 -958 1142 -516 609 -937 1114
-936 1120 8 44 475 2093 478 2096 2 2 96 -181 208 -406 158 -315 215 -420 251
-460 57 -63 1612 -1139 1711 -1184 189 -85 399 -46 539 100 173 182 179 463
13 647 -31 35 -269 204 -785 560 l-740 509 -145 290 c-643 1278 -931 1841
-966 1888 -257 349 -656 525 -1046 462z"/>
</g>
</svg>
