<?xml version="1.0" ?><svg viewBox="0 0 32 32" xmlns="http://www.w3.org/2000/svg"><defs><style>.cls-1{fill:none;}</style></defs><title/><g data-name="Layer 2" id="Layer_2"><path d="M26,27H6a3,3,0,0,1-3-3V8A3,3,0,0,1,6,5H26a3,3,0,0,1,3,3V24A3,3,0,0,1,26,27ZM6,7A1,1,0,0,0,5,8V24a1,1,0,0,0,1,1H26a1,1,0,0,0,1-1V8a1,1,0,0,0-1-1Z"/><path d="M21,15a3,3,0,1,1,3-3A3,3,0,0,1,21,15Zm0-4a1,1,0,1,0,1,1A1,1,0,0,0,21,11Z"/><path d="M26,27a1,1,0,0,1-.83-.45l-4.34-6.5a1,1,0,0,0-1.66,0l-.34.5a1,1,0,0,1-1.66-1.1l.33-.51a3,3,0,0,1,5,0l4.33,6.51a1,1,0,0,1-.28,1.38A.94.94,0,0,1,26,27Z"/><path d="M6,27a1,1,0,0,1-.54-.16,1,1,0,0,1-.3-1.38l6.23-9.62a3,3,0,0,1,2.5-1.37h0a3,3,0,0,1,2.5,1.34l6.42,9.64a1,1,0,0,1-1.66,1.1l-6.43-9.63a1,1,0,0,0-.83-.45h0a1,1,0,0,0-.83.46L6.84,26.54A1,1,0,0,1,6,27Z"/></g><g id="frame"><rect class="cls-1" height="32" width="32"/></g></svg>